<svg width="1200" height="486" viewBox="0 0 1200 486" fill="none" xmlns="http://www.w3.org/2000/svg">
  <defs>
    <linearGradient id="panel" x1="0" y1="0" x2="1200" y2="486" gradientUnits="userSpaceOnUse">
      <stop stop-color="#565A63"/>
      <stop offset="1" stop-color="#42464F"/>
    </linearGradient>
    <linearGradient id="blue" x1="0" y1="0" x2="1" y2="1">
      <stop stop-color="#8AA7FF"/>
      <stop offset="1" stop-color="#5475FF"/>
    </linearGradient>
    <filter id="softShadow" x="-20%" y="-20%" width="140%" height="140%">
      <feDropShadow dx="0" dy="18" stdDeviation="18" flood-color="#1E222A" flood-opacity="0.35"/>
    </filter>
  </defs>

  <rect width="1200" height="486" fill="url(#panel)"/>
  <rect x="58" y="52" width="680" height="382" rx="18" fill="#4F535C" opacity="0.62"/>

  <text x="84" y="104" fill="#F8FAFC" font-family="Inter, Arial, sans-serif" font-size="44" font-weight="800">Hey, I'm Shashikar</text>
  <rect x="84" y="124" width="310" height="30" rx="6" fill="url(#blue)"/>
  <text x="101" y="144" fill="#FFFFFF" font-family="Inter, Arial, sans-serif" font-size="14" font-weight="800" letter-spacing="1.2">BUILDING SCALABLE PRODUCTS</text>

  <text x="84" y="199" fill="#F2F4F7" font-family="Inter, Arial, sans-serif" font-size="22" font-weight="600">
    <tspan x="84" dy="0">Software Development Engineer focused on scalable</tspan>
    <tspan x="84" dy="30">backend systems, full-stack products, and LLM apps.</tspan>
  </text>

  <g font-family="Inter, Arial, sans-serif" font-size="16" font-weight="800" fill="#F8FAFC">
    <rect x="84" y="246" width="96" height="38" rx="8" fill="#6A6F78"/><text x="113" y="271">Java</text>
    <rect x="192" y="246" width="130" height="38" rx="8" fill="#6A6F78"/><text x="214" y="271">Spring</text>
    <rect x="334" y="246" width="136" height="38" rx="8" fill="#6A6F78"/><text x="357" y="271">React.js</text>
    <rect x="482" y="246" width="116" height="38" rx="8" fill="#6A6F78"/><text x="506" y="271">Next.js</text>

    <rect x="84" y="298" width="114" height="38" rx="8" fill="#6A6F78"/><text x="111" y="323">Node.js</text>
    <rect x="210" y="298" width="92" height="38" rx="8" fill="#6A6F78"/><text x="238" y="323">Dart</text>
    <rect x="314" y="298" width="166" height="38" rx="8" fill="#6A6F78"/><text x="338" y="323">Microservices</text>
    <rect x="492" y="298" width="96" height="38" rx="8" fill="#6A6F78"/><text x="520" y="323">RAG</text>

    <rect x="84" y="350" width="150" height="38" rx="8" fill="#6A6F78"/><text x="111" y="375">Gen AI</text>
    <rect x="246" y="350" width="154" height="38" rx="8" fill="#6A6F78"/><text x="272" y="375">LLM Apps</text>
    <rect x="412" y="350" width="164" height="38" rx="8" fill="#6A6F78"/><text x="437" y="375">Automation</text>
  </g>

  <g font-family="Inter, Arial, sans-serif" font-size="15" font-weight="700" fill="#F8FAFC">
    <circle cx="101" cy="424" r="15" fill="#EA4335"/><text x="94" y="429">@</text>
    <text x="126" y="429">shashikarsaurabh@gmail.com</text>
    <rect x="390" y="409" width="30" height="30" rx="7" fill="#0A66C2"/><text x="399" y="430">in</text>
    <text x="432" y="429">linkedin.com/in/shashikar-saurabh-80963121b</text>
  </g>

  <g transform="translate(780 62)" filter="url(#softShadow)">
    <ellipse cx="185" cy="348" rx="168" ry="28" fill="#30343B" opacity="0.35"/>
    <rect x="32" y="228" width="306" height="128" rx="18" fill="#2D333B"/>
    <rect x="52" y="250" width="266" height="16" rx="8" fill="#6A7280"/>
    <rect x="52" y="282" width="190" height="16" rx="8" fill="#8AA7FF"/>
    <rect x="52" y="314" width="230" height="16" rx="8" fill="#F2F4F7" opacity="0.76"/>

    <circle cx="184" cy="112" r="76" fill="#E8ECEF"/>
    <path d="M116 112C126 53 175 22 240 48C218 74 188 84 153 84C139 84 127 94 116 112Z" fill="#CED6DF"/>
    <circle cx="160" cy="114" r="6" fill="#1F2328"/>
    <circle cx="209" cy="114" r="6" fill="#1F2328"/>
    <path d="M150 145C172 164 201 164 223 145C218 188 155 188 150 145Z" fill="#21262D"/>
    <path d="M125 198C141 174 159 162 184 162C209 162 229 174 244 198L268 338H100L125 198Z" fill="#F8FAFC"/>
    <path d="M130 220C92 248 77 290 82 348H132L130 220Z" fill="#E8ECEF"/>
    <path d="M238 220C282 250 298 294 289 348H238L238 220Z" fill="#E8ECEF"/>
    <circle cx="184" cy="223" r="6" fill="#D0D5DD"/>
    <circle cx="184" cy="268" r="6" fill="#D0D5DD"/>
    <circle cx="184" cy="313" r="6" fill="#D0D5DD"/>
  </g>
</svg>
